/* XPM */
static char *noname[] = {
/* width height ncolors chars_per_pixel */
"48 48 875 2",
/* colors */
"   c #FFFFFF s BgColor",
" . c #4A4842",
" X c #B66732",
" o c #F2E2DD",
" O c #602C19",
" + c #484640",
" @ c #827C6F",
" # c #E3E2E2",
" $ c #E7936C",
" % c #DFA38F",
" & c #5A554B",
" * c #E5916A",
" = c #E0E0DF",
" - c #D77959",
" ; c #827965",
" : c #77361F",
" > c #575348",
" , c #76341E",
" < c #D57757",
" 1 c #F4C4B4",
" 2 c #6B6455",
" 3 c #A75537",
" 4 c #C4B253",
" 5 c #D47556",
" 6 c #83462E",
" 7 c #74321C",
" 8 c #D37555",
" 9 c #904227",
" 0 c #3F3C37",
" q c #898479",
" w c #EE9B76",
" e c #8E4025",
" r c #524D43",
" t c #54200D",
" y c #A77D65",
" u c #573427",
" i c #FEFBF9",
" p c #8C3E23",
" a c #692F1B",
" s c #926657",
" d c #752D13",
" f c #742D12",
" g c #EBE9E3",
" h c #848074",
" j c #F9A984",
" k c #833D24",
" l c #837E73",
" z c #827E72",
" x c #9C927B",
" c c #E1CD6C",
" v c #A49C9A",
" b c #AF7624",
" n c #873A1E",
" m c #C36C4F",
" M c #8F4B33",
" N c #7F7A6F",
" B c #998E78",
" V c #A45F0C",
" C c #C4BB8B",
" Z c #837B69",
" A c #7D786D",
" S c #817967",
" D c #7C351D",
" F c #984528",
" G c #ED9E82",
" H c #CDCCCC",
" J c #EFDBD3",
" K c #C2A533",
" L c #73341E",
" P c #E88866",
" I c #BD9477",
" U c #F3F0E4",
" Y c #71321C",
" T c #FFFDFD",
" R c #7C7362",
" E c #FEFDFC",
" W c #7B7361",
" Q c #E58463",
" ! c #A15334",
" ~ c #EB9B76",
" ^ c #B7B4B3",
" / c #757065",
" ( c #844128",
" ) c #A05133",
" _ c #BA6C32",
" ` c #FAF9F8",
" ' c #712B12",
" ] c #F8F7F6",
" [ c #605A4D",
" { c #632B18",
" } c #6F6A5F",
" | c #F6F5F4",
".  c #5E584B",
".. c #7E3922",
".X c #612916",
".o c #8D4B34",
".O c #F4F3F2",
".+ c #7C3720",
".@ c #98472B",
".# c #D0BC7C",
".$ c #807969",
".% c #E1CB5B",
".& c #948A76",
".* c #5F5342",
".= c #D8D3BC",
".- c #AA5F2C",
".; c #A79B82",
".: c #928874",
".> c #FAAF8B",
"., c #7A7363",
".< c #D39D89",
".1 c #743118",
".2 c #F2BFAE",
".3 c #8E8470",
".4 c #764331",
".5 c #C08E3E",
".6 c #BAA759",
".7 c #EAE9E8",
".8 c #8E3D21",
".9 c #878173",
".0 c #F6E5E0",
".q c #E8E7E6",
".w c #9D9778",
".e c #9C4D32",
".r c #857F71",
".t c #D3BE57",
".y c #B75D3C",
".u c #4A4741",
".i c #F7EDCD",
".p c #843A21",
".a c #FBF4F2",
".s c #726B5B",
".d c #5D584D",
".f c #7C3B23",
".g c #48453F",
".h c #6C2910",
".j c #FCB89A",
".k c #82381F",
".l c #817B6D",
".z c #42190B",
".x c #706959",
".c c #6A665D",
".v c #6F6758",
".b c #44413B",
".n c #D77858",
".m c #C4B687",
".M c #C06748",
".N c #76351D",
".B c #DEDDDC",
".V c #592511",
".C c #BF6547",
".Z c #D57656",
".A c #F5D9CB",
".S c #555045",
".D c #8A8579",
".F c #8F8674",
".G c #904126",
".H c #9B8D62",
".J c #534E43",
".K c #C87753",
".L c #8E3F24",
".P c #F0BFAF",
".I c #8D3F23",
".U c #696448",
".Y c #7D5648",
".T c #514C41",
".R c #FCAC86",
".E c #EC9A73",
".W c #762E13",
".Q c #8C3D22",
".! c #FBAA85",
".~ c #752C12",
".^ c #FAAA84",
"./ c #ADA163",
".( c #847F73",
".) c #994F32",
"._ c #8A3B20",
".` c #9F4C2E",
".' c #B55D3D",
".] c #817D70",
".[ c #E7946E",
".{ c #7D4F3E",
".} c #F4EBCD",
".| c #9A8F78",
"X  c #F5A47F",
"X. c #E7E0DE",
"XX c #9B7162",
"Xo c #653C2D",
"XO c #6D6759",
"X+ c #817866",
"X@ c #5D4F46",
"X# c #616161",
"X$ c #AD5535",
"X% c #F7D53B",
"X& c #7F7664",
"X* c #F3B294",
"X= c #73331D",
"X- c #FDECE3",
"X; c #604E3F",
"X: c #CABB72",
"X> c #C3765B",
"X, c #8D4126",
"X< c #F7D6C6",
"X1 c #FEFCFB",
"X2 c #A8A3A0",
"X3 c #CF7253",
"X4 c #8C3F25",
"X5 c #A6A39E",
"X6 c #A04E32",
"X7 c #635D4F",
"X8 c #DB8262",
"X9 c #722C12",
"X0 c #716B60",
"Xq c #471C0C",
"Xw c #FEF5F1",
"Xe c #4A483D",
"Xr c #461A0B",
"Xt c #7F3A22",
"Xy c #555555",
"Xu c #7C381F",
"Xi c #FBB595",
"Xp c #7B361E",
"Xa c #AD5738",
"Xs c #BCBBBA",
"Xd c #757471",
"Xf c #562514",
"Xg c #AE681B",
"Xh c #A95334",
"Xj c #7C7464",
"Xk c #DFA616",
"Xl c #FEFEFE",
"Xz c #A99D79",
"Xx c #8B8476",
"Xc c #908571",
"Xv c #A05435",
"Xb c #F3C0AE",
"Xn c #4B4B4B",
"Xm c #B5A75D",
"XM c #893F25",
"XN c #8D836E",
"XB c #8E3C20",
"XV c #4E1D0C",
"XC c #873D23",
"XZ c #A87136",
"XA c #B95E3D",
"XS c #702C13",
"XD c #E59872",
"XF c #FDF7F3",
"XG c #706B62",
"XH c #BB886D",
"XJ c #746C5C",
"XK c #6E2A11",
"XL c #FCF5F2",
"XP c #DDCA6D",
"XI c #B4A87D",
"XU c #726A5A",
"XY c #9B8E75",
"XT c #414141",
"XR c #CFBB7D",
"XE c #E6C72D",
"XW c #723722",
"XQ c #E5CD57",
"X! c #6E6656",
"X~ c #595348",
"X^ c #944429",
"X/ c #8D452C",
"X( c #A95537",
"X) c #FDD9C8",
"X_ c #3D3D3D",
"X` c #565145",
"X' c #9E632C",
"X] c #F3C2B1",
"X[ c #504E49",
"X{ c #8A8478",
"X} c #554D44",
"X| c #F4F0E0",
"o  c #D3CEB9",
"o. c #797264",
"oX c #792F15",
"oo c #8F4024",
"oO c #B7663E",
"o+ c #8E3E23",
"o@ c #E08363",
"o# c #772D13",
"o$ c #8D3E22",
"o% c #89513F",
"o& c #9F947C",
"o* c #C7B040",
"o= c #4C1D0D",
"o- c #853D24",
"o; c #EB9771",
"o: c #FAE3DC",
"o> c #353535",
"o, c #FCF7F5",
"o< c #847E72",
"o1 c #B66733",
"o2 c #994C31",
"o3 c #484641",
"o4 c #F5ECCD",
"o5 c #5F2A19",
"o6 c #D47E61",
"o7 c #867D6A",
"o8 c #716A5C",
"o9 c #813920",
"o0 c #E7936D",
"oq c #F3EACB",
"ow c #A65A41",
"oe c #CFBD80",
"or c #5D2817",
"ot c #C26A4C",
"oy c #837B67",
"ou c #FCF0EB",
"oi c #D67959",
"op c #F3A17C",
"oa c #D57758",
"os c #FBB291",
"od c #E4B2A2",
"of c #D47757",
"og c #7D4933",
"oh c #403E39",
"oj c #D37556",
"ok c #B8A766",
"ol c #E0C955",
"oz c #696254",
"ox c #D27555",
"oc c #EF9D78",
"ov c #8F4227",
"ob c #6C331F",
"on c #DADADA",
"om c #D17354",
"oM c #D07353",
"oN c #8D4025",
"oB c #835646",
"oV c #F4D662",
"oC c #895542",
"oZ c #762F15",
"oA c #9C5237",
"oS c #EDEBE6",
"oD c #FEFBFA",
"oF c #53200D",
"oG c #9E9253",
"oH c #8C3E24",
"oJ c #A24F33",
"oK c #858076",
"oL c #A7A09E",
"oP c #746E62",
"oI c #DC8162",
"oU c #AD6341",
"oY c #732B12",
"oT c #893C21",
"oR c #722B11",
"oE c #827E73",
"oW c #6C5C43",
"oQ c #817E72",
"o! c #EA9173",
"o~ c #4C473E",
"o^ c #B46E2A",
"o/ c #A39C9A",
"o( c #803B22",
"o) c #D2D2D2",
"o_ c #7B4E3E",
"o` c #8E5429",
"o' c #F2EACD",
"o] c #944A2F",
"o[ c #C2AE69",
"o{ c #E9CA2C",
"o} c #978C77",
"o| c #CECECE",
"O  c #BEBCBB",
"O. c #6E3724",
"OX c #CCCCCC",
"Oo c #545149",
"OO c #73341F",
"O+ c #72341E",
"O@ c #CACACA",
"O# c #D17557",
"O$ c #FFFFFE",
"O% c #A35337",
"O& c #734636",
"O* c #E8C3B6",
"O= c #FEFDFD",
"O- c #8C4227",
"O; c #7B7362",
"O: c #C0AE53",
"O> c #A05334",
"O, c #875543",
"O< c #FCFBFB",
"O1 c #797160",
"O2 c #CECABA",
"O3 c #9F4F33",
"O4 c #6C2E18",
"O5 c #FAF9F9",
"O6 c #CB6F51",
"O7 c #F9F9F8",
"O8 c #863C21",
"O9 c #C86D4E",
"O0 c #F6F5F5",
"Oq c #FBCDB8",
"Ow c #D6A897",
"Oe c #E49370",
"Or c #48453D",
"Ot c #6D685E",
"Oy c #C67242",
"Ou c #B35B36",
"Oi c #47433C",
"Op c #B57845",
"Oa c #6F6756",
"Os c #8F897C",
"Od c #A99D85",
"Of c #5E5342",
"Og c #552615",
"Oh c #F0EFEF",
"Oj c #5E5142",
"Ok c #F4C7B1",
"Ol c #8D442B",
"Oz c #924526",
"Ox c #9C7F75",
"Oc c #565044",
"Ov c #8B8578",
"Ob c #7D462F",
"On c #8A6B60",
"Om c #ECEBEB",
"OM c #8F3F23",
"ON c #782E13",
"OB c #E9E9E8",
"OV c #B8633E",
"OC c #8E3D22",
"OZ c #878174",
"OA c #EAAD90",
"OS c #8D3D21",
"OD c #4D1E0D",
"OF c #79402B",
"OG c #8C3B20",
"OH c #857F72",
"OJ c #8A806D",
"OK c #89806C",
"OL c #7E3D26",
"OP c #4A4742",
"OI c #50463E",
"OU c #E4BE16",
"OY c #833A21",
"OT c #602B19",
"OR c #877E6A",
"OE c #47453F",
"OW c #857C68",
"OQ c #D97C5B",
"O! c #615548",
"O~ c #F2E9C9",
"O^ c #833917",
"O/ c #7F361D",
"O( c #A19794",
"O) c #F1D547",
"O_ c #7D776A",
"O` c #D67858",
"O' c #5F4F46",
"O] c #60240F",
"O[ c #B76A4A",
"O{ c #DEDDDD",
"O} c #67625B",
"O| c #F1A079",
"+  c #D47656",
"+. c #F2EEEA",
"+X c #914328",
"+o c #6A6354",
"+O c #DCDBDB",
"++ c #EF9E77",
"+@ c #D27454",
"+# c #8F4126",
"+$ c #686152",
"+% c #534E44",
"+& c #DAD9D9",
"+* c #524E43",
"+= c #8D4124",
"+- c #D2B739",
"+; c #625E56",
"+: c #514C42",
"+> c #EC9A74",
"+, c #9F8E88",
"+< c #976227",
"+1 c #A4552A",
"+2 c #DE8263",
"+3 c #A67239",
"+4 c #DD8262",
"+5 c #84675D",
"+6 c #742C12",
"+7 c #8A3D21",
"+8 c #662C18",
"+9 c #C8B864",
"+0 c #BE7054",
"+q c #C6B16C",
"+w c #54453B",
"+e c #F0E3DE",
"+r c #F4D94D",
"+t c #685F3E",
"+y c #D9A796",
"+u c #5D2B19",
"+i c #B25B3B",
"+p c #9A8F79",
"+a c #7F3820",
"+s c #837C69",
"+d c #A19997",
"+f c #D0CFCF",
"+g c #B4856B",
"+h c #58564C",
"+j c #B05939",
"+k c #837A69",
"+l c #67270F",
"+z c #5A2716",
"+x c #807866",
"+c c #582514",
"+v c #FBDACB",
"+b c #EC9D81",
"+n c #C77B2B",
"+m c #CCCBCB",
"+M c #5D240F",
"+N c #BC6748",
"+B c #948973",
"+V c #FDC5AC",
"+C c #B1957F",
"+Z c #C4785D",
"+A c #FFFEFD",
"+S c #EFECEA",
"+D c #8A5645",
"+F c #9D533A",
"+G c #767166",
"+H c #FAE8E1",
"+J c #A15234",
"+K c #A05233",
"+L c #6E2F19",
"+P c #79705F",
"+I c #83695F",
"+U c #FBFAF9",
"+Y c #D68368",
"+T c #9F4E32",
"+R c #FAF8F8",
"+E c #88665A",
"+W c #776E5D",
"+Q c #F9F8F7",
"+! c #615B4E",
"+~ c #712A12",
"+^ c #F8F6F6",
"+/ c #EFD655",
"+( c #A49172",
"+) c #C3AF6C",
"+_ c #652710",
"+` c #F3F2F1",
"+' c #572716",
"+] c #954828",
"+[ c #704C3F",
"+{ c #B56D19",
"+} c #8F452C",
"+| c #864A2D",
"@  c #EFEEED",
"@. c #77321B",
"@X c #8C8678",
"@o c #83594B",
"@O c #A69A81",
"@+ c #7C3116",
"@@ c #58220D",
"@# c #914224",
"@$ c #8B8477",
"@% c #3B3B39",
"@& c #8A8476",
"@* c #898275",
"@= c #8F3E22",
"@- c #CF754D",
"@; c #888274",
"@: c #88685D",
"@> c #9E796C",
"@, c #4D4A44",
"@< c #383736",
"@1 c #E9E8E7",
"@2 c #FBE5DB",
"@3 c #8D3C20",
"@4 c #B95E3E",
"@5 c #F9F0CF",
"@6 c #B85E3D",
"@7 c #4B4842",
"@8 c #F4E4DE",
"@9 c #B8A257",
"@0 c #857E71",
"@q c #4A4841",
"@w c #6E2A12",
"@e c #612C19",
"@r c #9D8982",
"@t c #736C5C",
"@y c #5E594E",
"@u c #494640",
"@i c #E5E4E3",
"@p c #C56C4D",
"@a c #D89E3B",
"@s c #DB7D5C",
"@d c #9F9370",
"@f c #DBC86C",
"@g c #E98D6D",
"@h c #7A3821",
"@j c #D87959",
"@k c #69655C",
"@l c #61250F",
"@z c #D6A28F",
"@x c #6C6455",
"@c c #565146",
"@v c #A56F4B",
"@b c #554F45",
"@n c #F09D77",
"@m c #544F44",
"@M c #D27553",
"@N c #676450",
"@B c #D7C35E",
"@V c #8F4025",
"@C c #782F15",
"@Z c #8E4024",
"@A c #524D42",
"@S c #ECD5CC",
"@D c #54200C",
"@F c #A1967F",
"@G c #514D41",
"@H c #777063",
"@J c #8D3E23",
"@K c #762D13",
"@L c #752D12",
"@P c #8C3C22",
"@I c #BB6339",
"@U c #858074",
"@Y c #EA9771",
"@T c #FCF7F6",
"@R c #847E73",
"@E c #837E72",
"@W c #833B23",
"@Q c #877F6C",
"@! c #E8956F",
"@~ c #B45C3C",
"@^ c #9B9079",
"@/ c #B1B0A9",
"@( c #807C6F",
"@) c #6A2811",
"@_ c #692810",
"@` c #A55F0C",
"@' c #7F7A6E",
"@] c #3E180A",
"@[ c #592614",
"@{ c #5E5047",
"@} c #5F2510",
"@| c #FADA69",
"#  c #CC7C5A",
"#. c #93817B",
"#X c #8A5D44",
"#o c #F8ECE8",
"#O c #E88665",
"#+ c #8F4228",
"#@ c #D17555",
"## c #AE664D",
"#$ c #8E4227",
"#% c #917F79",
"#& c #635F59",
"#* c #8D4226",
"#= c #D07354",
"#- c #8D4026",
"#; c #E58462",
"#: c #69311D",
"#> c #5C5C5C",
"#, c #52200D",
"#< c #8E7D76",
"#1 c #E0C84C",
"#2 c #D7C257",
"#3 c #8A3E23",
"#4 c #B66041",
"#5 c #DB8162",
"#6 c #EEBF11",
"#7 c #54463D",
"#8 c #EDD0C6",
"#9 c #F5BCA3",
"#0 c #817E73",
"#q c #99624C",
"#w c #873A20",
"#e c #944C30",
"#r c #823C1B",
"#t c #E9E6D9",
"#y c #C99A46",
"#u c #D88F76",
"#i c #8B4931",
"#p c #E98A69",
"#a c #803419",
"#s c #948A75",
"#d c #434136",
"#f c #FDEDE6",
"#g c #9F682A",
"#h c #72341F",
"#j c #5B230F",
"#k c #4E4E4E",
"#l c #EBE9E0",
"#z c #DD8B67",
"#x c #7C3015",
"#c c #B8B6B6",
"#v c #F1D6CD",
"#b c #908671",
"#n c #FDFDFD",
"#m c #6E301B",
"#M c #9F5334",
"#N c #8A4026",
"#B c #9B8B5E",
"#V c #F2BFAD",
"#C c #4E4B44",
"#Z c #9E5133",
"#A c #888173",
"#S c #491F11",
"#D c #813F27",
"#F c #FEF8F4",
"#G c #716C63",
"#H c #B85D3C",
"#J c #6E2911",
"#K c #444444",
"#L c #AF5A3D",
"#P c #716959",
"#I c #424242",
"#U c #5B564A",
"#Y c #7D4B3A",
"#T c #632610",
"#R c #D5C46F",
"#E c #6B533C",
"#W c #8F897D",
"#Q c #AB5639",
"#! c #3E3E3E",
"#~ c #D67856",
"#^ c #A95637",
"#/ c #FBF4DD",
"#( c #6F341F",
"#) c #565045",
"#_ c #EC997C",
"#` c #6D321D",
"#' c #544E43",
"#] c #B46645",
"#[ c #A39780",
"#{ c #D5866C",
"#} c #8F3F24",
"#| c #F6E9E2",
"$  c #8E3F23",
"$. c #772E13",
"$X c #EECD6D",
"$o c #878175",
"$O c #762C12",
"$+ c #8C3D21",
"$@ c #988D89",
"$# c #C86F52",
"$$ c #F3E5DF",
"$% c #8B3B20",
"$& c #847F72",
"$* c #843C23",
"$= c #B65D3D",
"$- c #F9A882",
"$; c #837D71",
"$: c #A39076",
"$> c #A9755B",
"$, c #F5EDCD",
"$< c #E1A692",
"$1 c #5F2B19",
"$2 c #D4D1D1",
"$3 c #B1A287",
"$4 c #6B2911",
"$5 c #F7A680",
"$6 c #974B2F",
"$7 c #817B6F",
"$8 c #FEF3ED",
"$9 c #807B6E",
"$0 c #F5A47E",
"$q c #7F361E",
"$w c #5C2716",
"$e c #837A67",
"$r c #D57858",
"$t c #F1A07A",
"$y c #7B341A",
"$u c #F8C6AF",
"$i c #D47657",
"$p c #6A6355",
"$a c #D37656",
"$s c #E98765",
"$d c #5B4F43",
"$f c #E08C66",
"$g c #904328",
"$h c #93807A",
"$j c #EF9E78",
"$k c #D27455",
"$l c #D17454",
"$z c #FFFCFB",
"$x c #D07253",
"$c c #8D3F25",
"$v c #6A301D",
"$b c #69301C",
"$n c #645D4F",
"$m c #CD7050",
"$M c #732C12",
"$N c #837F74",
"$B c #7C3D28",
"$V c #E89671",
"$C c #883B20",
"$Z c #652C18",
"$A c #A2561F",
"$S c #F0A786",
"$D c #FDF3EF",
"$F c #A4600D",
"$G c #F1C82A",
"$H c #682711",
"$J c #5B2918",
"$K c #E6B7A7",
"$L c #F1D54B",
"$P c #DEB8A9",
"$I c #592716",
"$U c #94847E",
"$Y c #FDDE64",
"$T c #E98968",
"$R c #ACA7A6",
"$E c #865B4C",
"$W c #FFFEFE",
"$Q c #594D44",
"$! c #7C7463",
"$~ c #F0B093",
"$^ c #FDFCFC",
"$/ c #92583A",
"$( c #7A7261",
"$) c #FCFCFB",
"$_ c #A05234",
"$` c #9F5233",
"$' c #8A3F25",
"$] c #67301D",
"$[ c #A5835D",
"${ c #F2BEAC",
"$} c #FBFAFA",
"$| c #89685C",
"%  c #B55F42",
"%. c #D1BE5D",
"%X c #883D23",
"%o c #F7AA86",
"%O c #813E26",
"%+ c #E5C93F",
"%@ c #766E5D",
"%# c #474746",
"%$ c #F8F8F7",
"%% c #863B21",
"%& c #706B61",
"%* c #F7F6F6",
"%= c #8B6354",
"%- c #C76E4D",
"%; c #84391F",
"%: c #F5F4F4",
"%> c #968883",
"%, c #6D695E",
"%< c #F4F4F3",
"%1 c #7B3820",
"%2 c #BD6B4D",
"%3 c #908A7D",
"%4 c #6A655B",
"%5 c #63250F",
"%6 c #F1F0F0",
"%7 c #877C5D",
"%8 c #78341D",
"%9 c #7D3318",
"%0 c #A16A24",
"%q c #8C8679",
"%w c #A69A82",
"%e c #CDCAC6",
"%r c #8B8678",
"%t c #704936",
"%y c #60605B",
"%u c #C0A460",
"%i c #8A8477",
"%p c #A49880",
"%a c #792F14",
"%s c #EB987A",
"%d c #8F3E23",
"%f c #888275",
"%g c #6B2F1A",
"%h c #A89445",
"%j c #868073",
"%k c #7F3E27",
"%l c #4B4843",
/* pixels */
"                                     Uo'.}o4$,o4oqO~.i@5#/                                      ",
"                                    @/XIok+).#XR.mXz+qo[oeX|                                    ",
"                                    O2o{XQ./ C c+/%.#1O)#R#t                                    ",
"                                    .=XE#2X:@folXP@B.% 4+r#l                                    ",
"                                    o o*XmoG@N#d.U.w+9%+$L g                                    ",
"                                $^%eXdXe@%XnXnX_Xy#!+hO:.toS    O$.Aou                          ",
"                            +A@8$PX}oh@<o>#kX##>XT#I#K%#%yX5+.#|OA@! ~OkXF                      ",
"                      oD+HX]+b#pX8O!#'o~.bX[#&O}%4X0@HXj S@Q+CXD $@!o;.E$SX< i                  ",
"                  +HXb G P#O#O#O#5OIOr@c#) W+B+p@^@F#[@O.;%w I *o0@!@Y+> w$jX*@2O$              ",
"          X1o:${%s$s$s$s#O$s#O$soI$Q.g 0Oi+k#s.F@Q.$o.oP%, } y * $@!o;.E w@nO|op#9#f            ",
"      $W 1#_$T$s#O$s$s$s#O$s#O$s+4X@ + +.u+;+G@($;@$@*@;.r$&+g * $@!o;.E w@nO|op$0%oOqXw        ",
"        #V#O#O#O#O#O#O#O#O#O#O#O+2@{ +#Co3Ot.] z AoE h#W%3%iXH *o0@!@Y+> woc$topX $5$-osX) T    ",
"        $Do!$s$s#O$s$s$s#O$s#O$so@O'@u.u@u /Xx%i@0OH@'@'@U q$>$f $@!o;.E w@nO|op$0$5$-.!.R.j$8  ",
"          .2$s$s#O$s$s$s#O#;OQ.MO%#7@qOE@7XG$o#W@&@X%f @@'oQog+=.K.[o;.E w@nO|op$0$5$-.!.R+V$z  ",
"          XL@g#O#O#O Q#@% +T+X+#O-+w ..u%l@k N#0$N#WOsOZ$&@EObONoXXv#z+> woc$topX $5$-.^Xi#F    ",
"            .P@s@p#QX^.G+#$A+{Xg#E &@uOP.g%&#A%j$9 AoKX{Ov%i%0@` V$FO^#]$V@nO|op$0$5$-.>X-      ",
"          O=O*.e+#.G.G.G+#Op@|@9Oc >.d@,.u#G%r%q.9$7 l@Ro<.(#BoV$Y$X#ro##*# ++op$0$5 j+v        ",
"        .a$<$lO9X6.G.G.G+#Oz.5+t+:@c+%@yOo.c l.D%fO_.l.,@tO1OW+-X%X'o#o#o#%a#MOe$0$5$u T        ",
"      #v+Y#=$l$kox  +X+#+#ov%t.JX` r@c.J#UXOo8$poz.s+P+sOJ.3.&@d+3ONo#o#o#o#o#%9O[$~ i          ",
"  o,odO#$x#=om+@ox$k.C.@+#O-X;.J+*#).T.SX~$n@xXJ+W$(O;X&OR#b xo&#Xo#o#o#o#o#%a n.`.<            ",
".0#uX3$x$x#=om+@ox 8 5$moJ+# 6$d@A@b.J.J@cX7+$.x%@+x Zo7OKXc.|Od$:$yo#o##a FX$@6XA%2O=          ",
"#o#uX3X3oM#=$l$koxoj$a+ $i#4+]+|Oj.J@m@m [.v#PXJXJ Roy.:.&o} B%p$3$/@#Xh@6@6@6@6@6@6@S          ",
"  .a %X3$x#=om+@ox 8 5+ of.Z%-+1o`.*@GX`. +oXU$! WX+$eXNXY+($[@voU.'#HXA@6XAXA@6XAXA@z          ",
"     E$K#@#=om+@ox 8 5+ of <$r@M X+<Of+:+! 2X!O1 ;.H.6%uXZ.-Ou#HXA@6XAXA@6XAXA@6XAXAX>@T        ",
"        #8o6$l$koxoj$a+ ofoa$rO`oiOy#goWOa%7%h KOU#6@aoO@6@6@6@6@6@6@6@6@6@6@6@6@6@6@4 J        ",
"           o#{$kox 8 5+ of <$r.n.n -@-o^ b#y$GXk+n@I@6XAXA@6XAXAXA@6XAXA@6XAXA@6XAXA@6+y        ",
"            X.##ox 8 5+ of <$r.n.n -@j#~ _o1OV@6XAXA@6XAXA@6XAXAXA@6XAXA@6XAXA@6XAXA@6+ZX1      ",
"            %: u M#@$a+ ofoa$rO`oi moAo(#e#^@6@6@6@6@6@6@6@6@6@6@6@6@6@6@6@6@6@6@6@6@6+N$$      ",
"             |XoOD$BO6+ of+ $#+Fob.VO]XS.).f+j@6XAXA@6XAXA@6XAXAXA@6XAXA@6XAXA@6@4+0Ow+eO=      ",
"            +^O&+MXV$]otowO.#SXr t#TXK@C#Z@h%O$=XAXA@6XAXA@6XAXAXA@6XAXA@6XA.yo2#Y+S            ",
"             ].{$4@loFXq@].zo=#j$H '.W@+$` k#hX/@6@6@6@6@6@6@6@6@6@6@6@6 3 (o5+c+[+Q            ",
"            +QoB '.h%5@@#,@D@}@)+~$.o##x$_XM%1$vO3XA@6XAXA@6XAXAXA+i$6#($I@[.XO4@o+R            ",
"             `$E$MoR#J@_+_+l@woY$OONON#xO>#-$*OO#:Xa@6XAXA@6XAX(#D OXf$w+8+L@.O/ s `            ",
"            O5%=$M+6+6$MX9$M do#o#ONON@+ !#+#N..$bXW@~@6+io]obOg+z {%g 7 D.k#w._XX+U            ",
"            $}+,.1+6+6 f@L.~@Ko#o#ONON#x+JovoNo- LOT%kOL+u+'or$Z#m%8$q%;$C$%OG@3@>$)            ",
"            Xl@i$@.N@L@L@L@K@Ko#o#ONON@++K$g#$$'Xt#`$1$J@e aX=Xpo9%%+7.Q$+OSOS@3Ox$^            ",
"              #nOm$R.4@L@L@L@Ko#o#ONON#x+K 9+#X,XC.+O+ Y ,+a.poT@P@JOC.8OS.8XB@3@r#n            ",
"                  %6O .Y@L@L@Ko#o#ONON#x+K 9.G+#X4%X@WOYO8#3 po$o+o+@=.8OS#-o%#.$2Xl            ",
"                    %*+f+IoZ@Ko#o#ONON#x+K 9.G+#@V$cX4oH.I.L$ OM%do+@=Ol+E+dO@@1O5              ",
"                      O<O{%> :o#o#ONON@++K$gov+#+#+# e e@Z.L.L$ +#O,$hXs.B.O$^                  ",
"                        $^.qoLOFo#ONON#x+K 9.G+#.G@V eoo#}.L#i$| v+m@1%$Xl                      ",
"                          XlOh ^o_ONON#x+K 9.G+#.G@V e+#oC#%#con+`$^                            ",
"                              O0 H+5oX@++K$gov+#+#.o@:X2o|.7O5Xl                                ",
"                                O5+&#<Xu ) 9+}+D$U#c+O+`$^                                      ",
"                                  $^ #O(#qOno/OXOBO7Xl                                          ",
"                                    Xl@ o) =%<#n                                                ",
"                                        #nXl                                                    ",
"                                                                                                "
};
